<?xml version="1.0" standalone="no"?>
<!DOCTYPE svg PUBLIC "-//W3C//DTD SVG 20010904//EN"
 "http://www.w3.org/TR/2001/REC-SVG-20010904/DTD/svg10.dtd">
<svg version="1.0" xmlns="http://www.w3.org/2000/svg"
 width="375.000000pt" height="46.000000pt" viewBox="0 0 375.000000 46.000000"
 preserveAspectRatio="xMidYMid meet">

<g transform="translate(0.000000,46.000000) scale(0.100000,-0.100000)"
fill="#000000" stroke="none">
<path d="M31 384 c-19 -24 -21 -40 -21 -160 0 -143 8 -175 47 -193 14 -6 81
-11 157 -11 120 0 136 2 160 21 25 20 26 24 26 120 l0 99 -115 0 -115 0 0 -40
0 -40 80 0 80 0 0 -40 0 -40 -120 0 -120 0 0 120 0 120 155 0 155 0 0 35 0 35
-174 0 -175 0 -20 -26z"/>
<path d="M522 403 c-33 -13 -42 -60 -42 -223 l0 -160 40 0 40 0 0 80 0 80 120
0 120 0 0 -80 0 -80 40 0 40 0 0 160 c0 167 -9 210 -45 224 -20 7 -294 7 -313
-1z m278 -103 l0 -40 -120 0 -120 0 0 40 0 40 120 0 120 0 0 -40z"/>
<path d="M980 390 c-18 -18 -20 -33 -20 -195 l0 -175 35 0 35 0 0 160 0 160
40 0 40 0 0 -160 0 -160 40 0 40 0 0 160 0 160 40 0 40 0 0 -160 0 -160 40 0
40 0 0 169 c0 155 -2 170 -21 195 l-20 26 -155 0 c-141 0 -156 -2 -174 -20z"/>
<path d="M1452 387 c-21 -22 -22 -33 -22 -171 0 -146 0 -147 26 -171 26 -24
30 -25 195 -25 l169 0 0 40 0 40 -161 0 -160 0 3 37 3 38 158 3 157 3 0 39 0
40 -161 0 -160 0 3 38 3 37 158 3 157 3 0 34 0 35 -173 0 c-168 0 -174 -1
-195 -23z"/>
<path d="M1900 215 l0 -195 40 0 40 0 0 80 c0 76 1 80 22 80 14 0 52 -29 104
-80 80 -79 82 -80 133 -80 l51 0 0 40 c0 40 0 40 -38 40 -31 0 -45 7 -77 40
l-39 40 51 0 c36 0 58 6 77 21 24 19 26 26 26 95 0 114 0 114 -215 114 l-175
0 0 -195z m320 85 l0 -40 -120 0 -120 0 0 40 0 40 120 0 120 0 0 -40z"/>
<path d="M2890 391 c-6 -12 -10 -93 -10 -195 l0 -176 40 0 40 0 0 132 0 133
133 -133 c73 -72 138 -132 144 -132 6 0 19 7 27 16 13 13 16 45 16 195 l0 179
-40 0 -40 0 0 -127 0 -128 -128 128 c-131 130 -160 148 -182 108z"/>
<path d="M3360 215 l0 -195 35 0 35 0 0 80 0 80 28 0 c21 0 46 -18 107 -80 79
-80 80 -80 132 -80 l53 0 0 40 0 40 -43 0 c-39 0 -48 5 -100 58 l-57 58 63 62
c54 54 68 62 100 62 36 0 37 1 37 35 l0 35 -58 0 -58 0 -74 -75 c-57 -57 -81
-75 -102 -75 l-28 0 0 75 0 75 -35 0 -35 0 0 -195z"/>
<path d="M2450 383 c-51 -20 -96 -109 -106 -212 -8 -78 6 -111 48 -111 24 0
43 10 75 42 42 41 46 43 117 46 l73 4 52 -46 c59 -53 102 -61 122 -24 17 31 6
144 -20 205 -33 75 -62 99 -117 95 -83 -6 -159 -5 -194 1 -19 3 -42 4 -50 0z
m37 -102 c3 -11 13 -21 24 -24 19 -5 27 -27 9 -27 -5 0 -21 -12 -35 -27 -25
-28 -25 -28 -31 -6 -4 12 -15 25 -25 28 -25 8 -24 35 1 35 13 0 20 7 20 20 0
26 30 26 37 1z m279 -2 c3 -6 -1 -18 -10 -27 -15 -15 -17 -15 -32 0 -9 9 -13
21 -10 27 9 14 43 14 52 0z m-56 -44 c15 -18 5 -35 -20 -35 -10 0 -22 5 -25
10 -7 11 12 40 25 40 4 0 13 -7 20 -15z"/>
</g>
</svg>
